<?xml version="1.0" encoding="utf-8"?>
<svg viewBox="0 0 500 500" xmlns="http://www.w3.org/2000/svg">
  <defs>
    <polygon id="path-1" points="0.0252177681 0.295 93.3965287 0.295 93.3965287 54.0745 0.0252177681 54.0745"/>
    <polygon id="path-3" points="0.99160483 0.647273441 210.222066 0.647273441 210.222066 210 0.99160483 210"/>
  </defs>
  <title>Group 217</title>
  <desc>Created with Sketch.</desc>
  <g id="Page-1" stroke="none" stroke-width="1" fill="none" fill-rule="evenodd" transform="matrix(1.152571, 0, 0, 1.16216, -6.07303, -68.710466)" style="">
    <g id="01" transform="matrix(1, 0, 0, 1, -7.645121, -78.111322)">
      <g id="Group-217" transform="translate(24.000000, 147.000000)">
        <path d="M 150.045 118 C 150.016 175.99 197.004 223 254.993 223 C 312.983 223 360.016 175.99 360.045 118 C 360.074 60.01 313.087 13 255.097 13 C 197.108 13 150.074 60.01 150.045 118" id="Fill-1" style="fill: rgb(154, 220, 255);"/>
        <path d="M 264.657 17.003 C 267.963 16.064 271.497 15.654 274.869 16.346 C 278.237 17.037 281.425 18.925 283.129 21.788 C 285.076 25.056 284.888 29.054 284.647 32.808 C 284.04 42.212 283.433 51.616 282.83 61.017 C 282.66 63.626 282.512 66.343 283.571 68.755 C 284.631 71.164 287.29 73.146 289.974 72.617 C 291.338 72.348 292.489 71.491 293.785 70.992 C 295.079 70.494 296.804 70.475 297.614 71.557 C 298.097 72.2 298.116 73.059 298.025 73.847 C 297.626 77.324 295.372 80.561 292.167 82.256 C 294.052 81.385 296.414 83.203 296.444 85.197 C 296.476 87.196 294.788 88.921 292.844 89.666 C 290.902 90.409 288.745 90.382 286.654 90.343 C 288.376 90.37 289.705 92.129 289.534 93.766 C 289.363 95.402 288.01 96.768 286.422 97.408 C 284.836 98.049 283.05 98.075 281.335 97.923 C 277.689 97.6 274.051 96.481 271.178 94.312 C 266.162 90.523 264.134 84.054 264.068 77.945 C 264 71.836 265.593 65.833 266.49 59.785 C 268.568 45.749 266.881 31.485 265.193 17.406 C 265.607 17.287 266.016 17.168 266.428 17.049" id="Fill-3" fill="#FF7081" style=""/>
        <path d="M 282.967 228.754 C 278.892 232.573 277.341 238.518 281.223 243.104 C 284.88 247.425 291.957 248.341 296.528 244.896 C 307.564 236.587 296.073 221.252 284.167 224.426 C 281.963 225.013 282.512 228.081 284.689 228.202 C 288.168 228.394 291.894 228.523 294.676 230.905 C 297.659 233.464 297.725 237.789 295.272 240.73 C 288.781 248.518 277.516 237.05 284.333 230.088 C 285.194 229.209 283.868 227.911 282.967 228.754" id="Fill-5" fill="#7CABFF" style=""/>
        <path d="M 164.347 188.032 C 162.965 186.449 161.439 185.235 160.747 183.118 C 159.366 178.898 162.008 176.804 165.109 175.234 C 168.267 173.633 170.815 171.769 171.753 167.919 C 173.221 161.904 168.48 154.486 162.415 156.27 C 160.448 156.849 161.033 159.551 162.376 160.389 C 164.251 161.558 166.765 162.227 167.08 165.017 C 167.501 168.747 164.092 169.813 161.708 171.157 C 159.132 172.612 157.188 174.827 156.366 177.883 C 154.958 183.145 157.866 190.292 163.563 189.991 C 164.367 189.948 164.928 188.696 164.347 188.032" id="Fill-7" fill="#7E2E84" style=""/>
        <path d="M 145.99 252.067 C 146.528 255.532 150.172 262.863 154.009 263.875 C 156.052 264.416 157.57 263.088 159.159 262.008 C 162.047 260.046 164.896 258.04 167.75 256.036 C 168.788 255.305 169.403 253.9 168.631 252.725 C 166.108 248.892 163.587 245.055 161.064 241.219 C 160.39 240.197 158.835 239.567 157.713 240.354 C 154.563 242.553 151.15 244.579 148.311 247.159 C 146.355 248.937 148.843 251.843 151.064 250.684 C 154.285 249.001 157.207 246.608 160.183 244.532 C 159.064 244.24 157.948 243.951 156.832 243.662 C 159.354 247.498 161.877 251.332 164.398 255.166 C 164.691 254.064 164.985 252.96 165.278 251.858 C 163.566 253.059 161.847 254.258 160.139 255.467 C 159.172 256.153 155.933 259.147 154.858 259.027 C 153.894 258.92 151.874 255.532 151.282 254.834 C 150.07 253.413 148.934 252.07 147.372 251.018 C 146.62 250.509 145.88 251.347 145.99 252.067" id="Fill-9" fill="#FBC580" style=""/>
        <path d="M 314.069 96.066 C 314.607 99.531 318.249 106.864 322.087 107.876 C 324.13 108.415 325.648 107.086 327.237 106.007 C 330.121 104.048 332.973 102.038 335.828 100.034 C 336.866 99.304 337.481 97.901 336.708 96.724 C 334.185 92.89 331.664 89.054 329.141 85.221 C 328.468 84.196 326.912 83.568 325.791 84.353 C 322.64 86.552 319.228 88.578 316.389 91.161 C 314.433 92.938 316.919 95.844 319.142 94.683 C 322.362 93 325.285 90.607 328.26 88.531 C 327.143 88.239 326.027 87.952 324.91 87.661 C 327.431 91.497 329.954 95.331 332.475 99.167 C 332.768 98.063 333.062 96.958 333.356 95.857 C 331.643 97.061 329.925 98.257 328.218 99.466 C 327.25 100.152 324.011 103.145 322.936 103.026 C 321.971 102.918 319.95 99.531 319.359 98.835 C 318.148 97.412 317.015 96.069 315.45 95.019 C 314.695 94.508 313.955 95.346 314.069 96.066" id="Fill-11" fill="#FBC580" style=""/>
        <path d="M 328.914 157.117 C 322.64 160.155 316.47 163.365 310.314 166.656 C 308.832 167.448 308.597 169.08 309.745 170.318 C 314.254 175.181 318.701 180.058 323.545 184.558 C 324.478 185.426 325.985 184.928 326.473 183.816 C 329.486 176.972 334.06 167.639 332.813 159.871 C 332.496 157.897 329.602 156.998 328.826 159.2 C 327.613 162.646 327.618 166.51 326.839 170.097 C 325.94 174.235 324.769 178.383 322.999 182.214 L 326.276 181.857 C 321.86 176.645 317.081 171.845 312.308 166.993 C 312.28 168.122 312.251 169.254 312.221 170.384 C 318.257 166.854 324.237 163.27 330.135 159.496 C 331.377 158.701 330.254 156.468 328.914 157.117" id="Fill-13" fill="#FF7081" style=""/>
        <path d="M 210.178 246.573 C 214.672 241.203 219.219 235.22 222.732 229.048 C 223.841 227.101 221.111 224.874 219.714 226.647 C 215.355 232.176 211.49 238.679 208.146 244.959 C 207.437 246.291 209.2 247.738 210.178 246.573" id="Fill-15" fill="#FF7081" style=""/>
        <path d="M 365.955 62.401 L 365.612 62.099 C 364.106 60.768 361.633 60.505 360.165 62.099 C 358.682 63.71 358.734 65.923 360.162 67.534 C 360.264 67.648 360.364 67.76 360.467 67.876 C 361.814 69.397 364.594 69.352 365.952 67.876 C 367.304 66.408 367.579 63.834 365.955 62.401" id="Fill-17" fill="#241352" style=""/>
        <path d="M 183.881 212.402 C 183.767 212.302 183.652 212.2 183.538 212.1 C 182.03 210.767 179.559 210.505 178.091 212.1 C 176.608 213.711 176.66 215.922 178.088 217.535 C 178.19 217.649 178.29 217.761 178.39 217.875 C 179.74 219.396 182.52 219.353 183.878 217.875 C 185.23 216.409 185.505 213.835 183.881 212.402" id="Fill-19" fill="#241352" style=""/>
        <path d="M 239.062 85.745 L 168.527 112.36 L 175.272 83.69 L 156.934 79 C 156.934 79 137.178 135.046 150.879 136.543 C 174.862 139.171 211.161 129.609 211.161 129.609 L 239.062 85.745 Z" id="Fill-21" fill="#FFAFA7" style=""/>
        <path d="M 214.031 146.939 L 214.158 201.605 C 231.93 223.734 293.847 195.118 293.847 195.118 L 294.581 172.761 L 296.044 119.507 C 294.629 98.301 275.177 87.89 275.177 87.89 C 267.137 83.835 254.87 81.528 243.818 82.081 C 232.279 82.658 229.426 88.252 224.667 98.91 C 220.824 107.522 214.046 115.599 214.031 146.939" id="Fill-23" fill="#241352" style=""/>
        <path d="M 271.79 31.307 L 270.954 42.258 C 270.954 42.258 280.26 43.515 277.603 52.008 C 274.947 60.501 268.581 56.784 268.581 56.784 C 268.581 56.784 266.979 78.55 244.702 71.648 C 226.97 66.156 228.067 43.179 230.327 23.591 C 231.205 16.002 238.38 10.785 245.873 12.246 L 259.267 14.858 C 267.007 16.365 272.391 23.436 271.79 31.307" id="Fill-25" fill="#FFAFA7" style=""/>
        <path d="M 272.079 51 L 265.959 83.395 C 264.581 90.696 257.345 95.364 250.087 93.642 C 243.362 92.044 239.057 85.504 240.267 78.729 L 243.591 60.161 L 272.079 51 Z" id="Fill-27" fill="#FFAFA7" style=""/>
        <path d="M 246.057 52.08 C 246.088 52.072 246.148 52.559 245.698 52.915 C 245.23 53.253 244.478 52.547 244.285 51.406 C 244.036 50.314 244.069 48.997 244.103 47.66 C 244.151 46.204 244.199 44.766 244.25 43.257 C 244.503 37.016 244.897 31.975 245.129 32 C 245.361 32.02 245.342 37.099 245.089 43.341 C 245.017 44.844 244.948 46.282 244.877 47.736 C 244.797 49.088 244.721 50.256 244.855 51.144 C 244.951 52.04 245.351 52.464 245.613 52.421 C 245.881 52.373 246.001 52.017 246.057 52.08" id="Fill-29" fill="#241352" style=""/>
        <path d="M 240.077 69.024 C 240.261 68.703 244.624 71.718 251.007 71.82 C 257.39 71.96 261.895 69.11 262.063 69.438 C 262.159 69.551 261.2 70.417 259.257 71.318 C 257.336 72.218 254.356 73.062 250.978 72.996 C 247.6 72.935 244.667 71.981 242.789 71.008 C 240.892 70.035 239.976 69.135 240.077 69.024" id="Fill-31" fill="#241352" style=""/>
        <path d="M 244.103 56.737 C 244.246 56.619 244.74 57.043 245.643 57.409 C 246.527 57.779 247.904 58.046 249.252 57.632 C 250.601 57.206 251.557 56.214 252.052 55.413 C 252.569 54.608 252.716 53.984 252.904 54 C 253.051 54 253.232 54.705 252.843 55.777 C 252.48 56.82 251.411 58.208 249.632 58.774 C 247.843 59.317 246.14 58.792 245.217 58.148 C 244.259 57.496 243.982 56.822 244.103 56.737" id="Fill-33" fill="#241352" style=""/>
        <path d="M 272.104 51.782 C 272.094 51.62 272.462 51.524 272.851 51.192 C 273.044 51.02 273.199 50.791 273.253 50.482 C 273.305 50.16 273.234 49.919 273.076 49.856 C 272.932 49.784 272.812 49.849 272.796 49.881 L 272.08 49.398 C 272.644 47.915 273.167 46.906 273.342 47.007 C 273.518 47.106 273.288 48.286 272.818 49.822 L 272.104 49.339 C 272.375 48.742 272.96 48.612 273.377 48.833 C 273.685 48.963 273.961 49.37 274.03 49.744 C 274.117 50.129 274.078 50.496 273.992 50.797 C 273.817 51.415 273.411 51.77 273.106 51.891 C 272.464 52.135 272.104 51.91 272.104 51.782" id="Fill-35" fill="#241352" style=""/>
        <path d="M 257.098 31.784 C 256.981 31.524 258.016 30.976 259.339 31.302 C 260.665 31.622 261.276 32.57 261.037 32.744 C 260.804 32.946 260.041 32.534 259.054 32.31 C 258.075 32.056 257.192 32.066 257.098 31.784" id="Fill-37" fill="#241352" style=""/>
        <path d="M 237.104 28.174 C 236.95 27.924 238.083 27.258 239.688 27.378 C 241.293 27.492 242.268 28.314 242.063 28.538 C 241.872 28.786 240.839 28.496 239.577 28.416 C 238.318 28.31 237.242 28.446 237.104 28.174" id="Fill-39" fill="#241352" style=""/>
        <path d="M 270.358 42.41 C 264.274 36.296 262.492 26.11 260.845 17.52 C 255.206 21.75 247.453 22.789 240.955 20.189 C 238.914 22.658 236.516 24.816 233.867 26.567 C 233.115 27.066 232.221 27.547 231.363 27.281 C 230.342 26.965 229.888 25.757 229.646 24.688 C 228.871 21.261 228.844 17.594 230.006 14.285 C 231.167 10.976 233.599 8.068 236.785 6.798 C 240.188 5.44 244.02 6.03 247.554 6.974 C 252.876 8.396 258.006 10.581 262.747 13.446 C 267.405 16.258 271.877 19.977 273.849 25.152 C 275.823 30.325 275.809 40.385 271.044 43" id="Fill-41" fill="#FF7081" style=""/>
        <path d="M 235.506 86.225 C 241.703 83.869 194.054 100.802 194.054 100.802 L 198.87 132 L 216.993 126.309 L 235.506 86.225 Z" id="Fill-43" fill="#241352" style=""/>
        <path d="M 172.83 85 C 172.83 85 184.976 67.909 182.812 67.919 C 180.648 67.927 179.517 71.144 175.314 73.346 C 175.314 73.346 182.033 51.975 179.957 52.424 C 177.88 52.872 172.923 66.589 172.598 66.574 C 172.274 66.559 176.877 51.19 175.154 51.002 C 173.432 50.814 169.202 65.11 169.202 65.11 C 169.202 65.11 172.101 51.52 170.277 51.215 C 168.453 50.91 165.753 63.431 165.753 63.431 C 165.753 63.431 167.911 52.916 166.251 52.659 C 165.24 52.505 156.066 78.585 156.066 78.585 C 156.307 78.585 172.83 85 172.83 85" id="Fill-45" fill="#FFAFA7" style=""/>
        <path d="M 267.561 145 C 267.468 145.01 267.282 144.141 267.018 142.562 C 266.753 140.983 266.416 138.696 266.026 135.864 C 265.25 130.198 264.259 122.377 263.266 113.703 C 263.039 111.522 262.917 109.326 263.278 107.205 C 263.608 105.084 264.549 103.089 265.869 101.551 C 268.522 98.434 272.177 96.945 275.192 96.384 C 278.251 95.815 280.773 95.994 282.463 96.188 C 284.161 96.398 285.069 96.659 285.056 96.734 C 285.04 96.831 284.102 96.734 282.419 96.679 C 280.746 96.635 278.284 96.601 275.398 97.254 C 272.553 97.893 269.2 99.39 266.839 102.265 C 265.67 103.689 264.864 105.442 264.573 107.394 C 264.259 109.341 264.373 111.432 264.6 113.577 C 265.591 122.225 266.432 130.082 266.967 135.767 C 267.236 138.609 267.429 140.916 267.534 142.509 C 267.639 144.105 267.653 144.99 267.561 145" id="Fill-47" fill="#241352" style=""/>
        <path d="M 265.034 142.095 C 265.07 141.759 273.385 142.34 283.599 143.392 C 293.817 144.444 302.068 145.57 302.032 145.906 C 301.995 146.239 293.686 145.661 283.466 144.607 C 273.251 143.556 264.998 142.431 265.034 142.095" id="Fill-49" fill="#241352" style=""/>
        <g id="Group-53" transform="matrix(1, 0, -0.000497, 1, 117.104166, 0)" style="">
          <mask id="mask-2" fill="white">
            <polygon points="0.0252177681 0.295 93.3965287 0.295 93.3965287 54.0745 0.0252177681 54.0745"/>
          </mask>
          <g id="Clip-52"/>
          <polygon id="Fill-51" mask="url(#mask-2)" points="93.3965287 3.0245 93.3965287 40.037 68.9612524 40.037 68.1831376 54.0745 53.823831 39.2245 0.0252177681 39.2245 4.76307259 0.2945" style="fill: rgb(47, 147, 186);"/>
        </g>
        <path d="M 203.899 13.831 C 180.129 13.437 156.204 13.301 132.435 13.713 C 131.985 13.721 131.985 14.279 132.435 14.287 C 156.203 14.699 180.129 14.561 203.899 14.167 C 204.162 14.165 204.165 13.835 203.899 13.831" id="Fill-54" fill="#E6E2EB" style=""/>
        <path d="M 203.895 21.831 C 180.126 21.439 156.2 21.301 132.431 21.713 C 131.981 21.721 131.981 22.279 132.431 22.287 C 156.199 22.699 180.125 22.561 203.895 22.169 C 204.159 22.165 204.161 21.835 203.895 21.831" id="Fill-56" fill="#E6E2EB" style=""/>
        <path d="M 200.893 29.831 C 186.482 29.457 171.837 29.343 157.423 29.713 C 156.978 29.725 156.977 30.275 157.422 30.287 C 171.836 30.655 186.481 30.543 200.892 30.169 C 201.153 30.163 201.157 29.837 200.893 29.831" id="Fill-58" fill="#E6E2EB" style=""/>
        <path d="M 237.814 37.815 C 237.551 37.943 237.156 37.671 236.782 37.325 C 236.414 36.971 236.118 36.595 236.23 36.325 C 236.332 36.061 236.972 36.071 237.496 36.565 C 238.02 37.059 238.072 37.697 237.814 37.815" id="Fill-60" fill="#241352" style=""/>
        <path d="M 256.916 38.985 C 256.65 39.082 256.188 38.701 255.738 38.21 C 255.293 37.713 254.977 37.243 255.165 37.06 C 255.345 36.879 256.045 37.113 256.573 37.693 C 257.1 38.274 257.176 38.892 256.916 38.985" id="Fill-62" fill="#241352" style=""/>
        <path d="M 252.892 55.778 C 253.353 57.67 252.914 59.527 251.91 59.924 C 250.908 60.323 249.72 59.114 249.259 57.221 C 248.799 55.332 249.238 53.475 250.243 53.075 C 251.245 52.679 252.433 53.888 252.892 55.778" id="Fill-64" fill-opacity="0.2" fill="#241352" style=""/>
        <path d="M 264.082 44.46 C 264.093 46.392 261.864 47.978 259.103 48 C 256.342 48.021 254.095 46.473 254.082 44.54 C 254.071 42.608 256.3 41.022 259.063 41 C 261.822 40.979 264.071 42.527 264.082 44.46" id="Fill-66" fill-opacity="0.15" fill="#241352" style=""/>
        <path d="M 242.082 45.46 C 242.093 47.392 239.864 48.978 237.103 49 C 234.342 49.021 232.095 47.473 232.082 45.54 C 232.071 43.608 234.299 42.022 237.062 42 C 239.821 41.979 242.071 43.527 242.082 45.46" id="Fill-68" fill-opacity="0.15" fill="#241352" style=""/>
        <path d="M 272.345 27.98 C 272.241 27.84 272.63 27.28 272.275 26.252 C 271.981 25.258 271.086 23.833 270.375 22.203 C 268.867 18.955 267.868 16.184 268.141 16.009 C 268.415 15.834 269.869 18.344 271.389 21.616 C 272.105 23.28 272.875 24.671 273.061 26.052 C 273.15 26.718 273.034 27.334 272.811 27.657 C 272.592 27.983 272.391 28.037 272.345 27.98" id="Fill-70" fill="#6F35A5" style=""/>
        <polygon id="Fill-72" fill="#7CABFF" points="219.222 133.786 215.011 188.38 273.007 196 269.113 133" style=""/>
        <polyline id="Fill-74" fill="#7CABFF" points="222.056 96.4 222.035 139 229.037 136.552 229.061 88 222.06 89.988" style=""/>
        <path d="M 275.771 90 C 275.771 90 249.8 93.311 257.456 135.311 L 263.963 136 C 263.963 136 256.644 96.541 281.058 93.725 L 275.771 90 Z" id="Fill-76" fill="#7CABFF" style=""/>
        <path d="M 268.687 138 C 268.687 138 277.479 190.133 265.045 188.851 C 224.146 184.631 199.791 184.061 199.791 184.061 L 193.006 198.185 C 192.847 200.591 270.45 222.882 282.925 215.513 C 291.733 210.307 305.768 196.29 299.421 154.399 L 297.924 140.359 L 268.687 138 Z" id="Fill-78" fill="#FFAFA7" style=""/>
        <path d="M 290.507 103.9 C 290.507 103.9 299.939 113.117 302.031 148 L 265.515 143.89 C 265.515 143.89 259.459 84.482 290.507 103.9" id="Fill-80" fill="#241352" style=""/>
        <path d="M 204.367 184.632 C 204.367 184.632 184.242 178.351 184.93 180.417 C 185.62 182.481 189.047 182.56 192.47 185.89 C 192.47 185.89 169.965 186.132 171.049 187.977 C 172.13 189.821 186.775 190.284 186.864 190.597 C 186.953 190.913 170.841 191.304 171.205 193.009 C 171.566 194.716 186.535 194.299 186.535 194.299 C 186.535 194.299 172.659 195.767 172.941 197.605 C 173.227 199.445 186.021 198.12 186.021 198.12 C 186.021 198.12 175.312 199.336 175.588 201.001 C 175.759 202.016 206.939 202.248 207.003 202.994 C 207.037 203.383 204.367 184.632 204.367 184.632" id="Fill-82" fill="#FFAFA7" style=""/>
        <path d="M 229.333 132 C 229.487 131.984 229.873 132.93 230.021 134.66 C 230.072 135.51 230.028 136.639 229.474 137.755 C 228.965 138.821 227.84 140 226.282 140 C 224.756 139.982 223.628 138.979 222.987 137.984 C 222.319 136.928 222.144 135.86 222.064 135.004 C 221.96 133.279 222.18 132.276 222.337 132.265 C 222.536 132.252 222.647 133.305 222.969 134.849 C 223.144 135.605 223.413 136.513 223.955 137.249 C 224.495 137.986 225.371 138.64 226.28 138.632 C 227.186 138.648 227.978 137.947 228.431 137.141 C 228.9 136.34 229.042 135.434 229.105 134.655 C 229.195 133.082 229.133 132.021 229.333 132" id="Fill-84" fill="#241352" style=""/>
        <path d="M 226.566 134.382 C 226.632 134.484 226.554 134.677 226.644 134.902 C 226.761 135.161 226.875 135.223 227.091 135.089 C 227.294 134.936 227.282 134.802 227.096 134.591 C 226.928 134.42 226.723 134.42 226.658 134.319 C 226.574 134.244 226.814 133.9 227.336 134.028 C 227.57 134.095 227.869 134.277 227.998 134.679 C 228.131 135.094 227.91 135.588 227.561 135.811 C 227.226 136.055 226.698 136.078 226.376 135.79 C 226.061 135.514 226.014 135.161 226.046 134.912 C 226.129 134.37 226.528 134.275 226.566 134.382" id="Fill-86" fill="#241352" style=""/>
        <path d="M 263.512 133.006 C 263.653 132.938 264.183 133.472 263.999 134.484 C 263.851 135.421 262.771 136.871 260.684 137 C 258.589 137.017 257.369 135.648 257.128 134.725 C 256.841 133.73 257.317 133.161 257.462 133.218 C 257.667 133.257 257.612 133.791 258.038 134.449 C 258.414 135.09 259.432 135.897 260.627 135.862 C 261.822 135.814 262.753 134.939 263.065 134.272 C 263.42 133.588 263.312 133.058 263.512 133.006" id="Fill-88" fill="#241352" style=""/>
        <path d="M 261.176 129.731 C 261.105 129.588 261.323 129.015 261.889 129 C 262.157 129.003 262.522 129.161 262.8 129.745 C 263.1 130.313 263.121 131.403 262.844 132.067 C 262.613 132.774 262.022 133.262 261.537 132.847 C 261.042 132.38 261.009 131.581 261.052 131.102 C 261.099 130.585 261.296 130.202 261.467 130.111 C 261.64 130.023 261.727 130.137 261.736 130.228 C 261.734 130.447 261.583 130.681 261.668 131.143 C 261.788 131.681 261.885 131.698 262.108 131.245 C 262.307 130.745 262.119 130.318 261.798 130.064 C 261.499 129.839 261.239 129.918 261.176 129.731" id="Fill-90" fill="#241352" style=""/>
        <path d="M 258.806 156.996 C 258.52 156.921 258.475 155.802 258.509 154.483 C 258.55 153.163 258.651 152.057 258.939 152.002 C 259.219 151.944 259.594 153.073 259.551 154.528 C 259.513 155.983 259.082 157.074 258.806 156.996" id="Fill-92" fill="#241352" style=""/>
        <path d="M 254.062 165.944 C 253.898 165.691 254.262 164.759 254.757 163.717 C 255.256 162.678 255.73 161.862 255.939 162.02 C 256.143 162.168 255.979 163.319 255.433 164.458 C 254.893 165.596 254.218 166.194 254.062 165.944" id="Fill-94" fill="#241352" style=""/>
        <path d="M 246.021 170.55 C 245.966 170.26 247.046 169.912 248.36 169.582 C 249.679 169.26 250.814 169.056 250.998 169.312 C 251.179 169.56 250.233 170.216 248.782 170.574 C 247.335 170.932 246.071 170.83 246.021 170.55" id="Fill-96" fill="#241352" style=""/>
        <path d="M 235.038 169.382 C 235.202 169.12 236.337 169.284 237.659 169.566 C 238.98 169.854 240.06 170.174 240.018 170.466 C 239.984 170.748 238.738 170.882 237.291 170.568 C 235.845 170.258 234.875 169.636 235.038 169.382" id="Fill-98" fill="#241352" style=""/>
        <path d="M 228.098 163.023 C 228.295 162.851 228.766 163.659 229.267 164.695 C 229.766 165.735 230.137 166.663 229.988 166.935 C 229.845 167.202 229.183 166.635 228.635 165.495 C 228.086 164.36 227.905 163.188 228.098 163.023" id="Fill-100" fill="#241352" style=""/>
        <path d="M 227.016 153.001 C 227.306 153.039 227.45 154.141 227.533 155.46 C 227.61 156.784 227.598 157.907 227.314 157.995 C 227.04 158.085 226.58 157.013 226.495 155.563 C 226.404 154.111 226.734 152.961 227.016 153.001" id="Fill-102" fill="#241352" style=""/>
        <path d="M 234.029 152.072 C 234.016 152.36 232.885 152.56 231.507 152.52 C 230.124 152.48 229.019 152.214 229.029 151.928 C 229.044 151.64 230.172 151.44 231.553 151.48 C 232.933 151.52 234.041 151.784 234.029 152.072" id="Fill-104" fill="#241352" style=""/>
        <path d="M 244.029 152.072 C 244.016 152.36 242.885 152.56 241.504 152.52 C 240.124 152.482 239.017 152.216 239.029 151.928 C 239.042 151.64 240.172 151.44 241.553 151.48 C 242.933 151.52 244.041 151.784 244.029 152.072" id="Fill-106" fill="#241352" style=""/>
        <path d="M 255.029 152.072 C 255.016 152.36 253.885 152.56 252.504 152.52 C 251.124 152.48 250.017 152.214 250.029 151.928 C 250.042 151.64 251.172 151.44 252.553 151.48 C 253.933 151.52 255.041 151.784 255.029 152.072" id="Fill-108" fill="#241352" style=""/>
        <path d="M 259.267 263.057 C 260.616 256.241 261.71 248.905 261.982 241.925 C 262.066 239.749 258.934 239.205 258.573 241.403 C 257.435 248.311 257.023 255.692 256.974 262.703 C 256.964 264.167 258.974 264.536 259.267 263.057" id="Fill-110" fill="#FF957E" style=""/>
        <path d="M 293.845 285.4 C 293.731 285.3 293.617 285.201 293.502 285.098 C 291.996 283.767 289.521 283.506 288.055 285.098 C 286.57 286.71 286.624 288.922 288.052 290.534 L 288.354 290.876 C 289.704 292.397 292.484 292.352 293.842 290.876 C 295.194 289.41 295.466 286.836 293.845 285.4" id="Fill-112" fill="#241352" style=""/>
        <g id="Group-116" transform="matrix(1, 0, -0.000497, 1, 4.000322, 209.000003)" style="">
          <mask id="mask-4" fill="white">
            <polygon points="0.99160483 0.647273441 210.222066 0.647273441 210.222066 210 0.99160483 210"/>
          </mask>
          <g id="Clip-115"/>
          <path d="M210.222066,105.323268 C210.222066,163.133926 163.383934,210.00172 105.606835,210.00172 C47.8272807,210.00172 0.99160483,163.133926 0.99160483,105.323268 C0.99160483,47.5126104 47.8272807,0.647273441 105.606835,0.647273441 C163.383934,0.647273441 210.222066,47.5126104 210.222066,105.323268" id="Fill-114" mask="url(#mask-4)" style="fill: rgb(154, 220, 255);"/>
        </g>
        <path d="M 124.965 278.748 L 195.477 305.361 L 188.757 276.693 L 207.1 272 C 207.1 272 226.8 328.043 213.098 329.543 C 189.112 332.171 152.825 322.609 152.825 322.609 L 124.965 278.748 Z" id="Fill-117" fill="#FFAFA7" style=""/>
        <path d="M 148.934 341.939 L 148.753 396.605 C 130.96 418.734 69.07 390.118 69.07 390.118 L 68.36 367.761 L 66.948 314.507 C 68.384 293.3 87.848 282.89 87.848 282.89 C 95.891 278.834 108.161 276.53 119.214 277.081 C 130.75 277.66 133.598 283.252 138.346 293.909 C 142.183 302.521 148.95 310.598 148.934 341.939" id="Fill-119" style="fill: rgb(47, 147, 186);"/>
        <path d="M 94.287 331 C 94.287 331 85.445 383.134 97.879 381.851 C 138.783 377.632 163.138 377.063 163.138 377.063 L 169.909 391.185 C 170.066 393.591 92.441 415.881 79.973 408.514 C 71.17 403.308 57.149 389.293 63.538 347.402 L 65.049 333.359 L 94.287 331 Z" id="Fill-121" fill="#FFAFA7" style=""/>
        <path d="M 71.502 297.901 C 71.502 297.901 62.061 307.12 59.934 342 L 96.454 337.89 C 96.454 337.89 102.569 278.481 71.502 297.901" id="Fill-123" style="fill: rgb(47, 147, 186);"/>
        <path d="M 89.29 225.307 L 90.114 236.258 C 90.114 236.258 80.808 237.513 83.458 246.008 C 86.106 254.501 92.473 250.784 92.473 250.784 C 92.473 250.784 94.054 272.549 116.34 265.648 C 134.076 260.154 133.003 237.179 130.762 217.591 C 129.891 210.002 122.721 204.785 115.227 206.246 L 101.829 208.855 C 94.088 210.365 88.696 217.437 89.29 225.307" id="Fill-125" fill="#FFAFA7" style=""/>
        <path d="M 90.983 244 L 97.073 276.395 C 98.444 283.696 105.673 288.364 112.932 286.642 C 119.659 285.044 123.971 278.507 122.767 271.729 L 119.462 253.161 L 90.983 244 Z" id="Fill-127" fill="#FFAFA7" style=""/>
        <path d="M 116.004 245.08 C 116.06 245.02 116.18 245.373 116.448 245.423 C 116.71 245.464 117.109 245.04 117.206 244.144 C 117.341 243.256 117.267 242.088 117.187 240.736 C 117.119 239.282 117.051 237.847 116.981 236.341 C 116.733 230.099 116.72 225.023 116.952 225 C 117.185 224.977 117.573 230.016 117.821 236.257 C 117.87 237.766 117.916 239.207 117.961 240.66 C 117.994 241.995 118.027 243.314 117.777 244.406 C 117.583 245.547 116.83 246.253 116.361 245.915 C 115.912 245.559 115.973 245.072 116.004 245.08" id="Fill-129" fill="#241352" style=""/>
        <path d="M 123.965 264.024 C 124.069 264.135 123.149 265.035 121.251 266.007 C 119.372 266.979 116.438 267.933 113.06 267.997 C 109.683 268.06 106.703 267.217 104.783 266.317 C 102.842 265.417 101.883 264.551 101.98 264.438 C 102.15 264.11 106.65 266.959 113.034 266.816 C 119.416 266.717 123.782 263.703 123.965 264.024" id="Fill-131" fill="#241352" style=""/>
        <path d="M 117.954 248.737 C 118.075 248.822 117.796 249.496 116.838 250.148 C 115.913 250.792 114.211 251.317 112.423 250.774 C 110.643 250.21 109.576 248.82 109.212 247.777 C 108.828 246.705 109.006 246 109.156 246 C 109.344 245.984 109.491 246.608 110.005 247.416 C 110.501 248.214 111.457 249.206 112.801 249.632 C 114.152 250.046 115.526 249.779 116.413 249.409 C 117.315 249.043 117.811 248.619 117.954 248.737" id="Fill-133" fill="#241352" style=""/>
        <path d="M 88.956 246.782 C 88.957 246.91 88.596 247.135 87.955 246.891 C 87.65 246.768 87.243 246.413 87.07 245.795 C 86.983 245.497 86.944 245.13 87.032 244.743 C 87.102 244.369 87.379 243.962 87.685 243.834 C 88.105 243.611 88.689 243.744 88.958 244.34 L 88.243 244.821 C 87.776 243.286 87.547 242.106 87.722 242.007 C 87.897 241.906 88.419 242.916 88.983 244.397 L 88.266 244.882 C 88.25 244.848 88.131 244.783 87.985 244.855 C 87.828 244.918 87.757 245.161 87.81 245.482 C 87.861 245.789 88.017 246.018 88.21 246.192 C 88.597 246.524 88.965 246.621 88.956 246.782" id="Fill-135" fill="#241352" style=""/>
        <path d="M 106.983 224.784 C 106.888 225.066 106.005 225.058 105.026 225.31 C 104.039 225.536 103.274 225.946 103.043 225.744 C 102.804 225.57 103.416 224.622 104.739 224.302 C 106.066 223.978 107.1 224.524 106.983 224.784" id="Fill-137" fill="#241352" style=""/>
        <path d="M 125.98 221.174 C 125.842 221.446 124.766 221.312 123.507 221.416 C 122.245 221.496 121.212 221.786 121.021 221.538 C 120.816 221.314 121.794 220.492 123.399 220.378 C 125.005 220.258 126.135 220.924 125.98 221.174" id="Fill-139" fill="#241352" style=""/>
        <path d="M 92.71 235.41 C 98.8 229.296 100.593 219.11 102.249 210.52 C 107.883 214.75 115.635 215.789 122.135 213.189 C 124.174 215.658 126.569 217.814 129.217 219.565 C 129.969 220.063 130.862 220.547 131.721 220.281 C 132.742 219.962 133.197 218.757 133.44 217.686 C 134.221 214.261 134.252 210.594 133.093 207.283 C 131.932 203.974 129.503 201.068 126.319 199.798 C 122.917 198.44 119.087 199.03 115.552 199.974 C 110.228 201.396 105.096 203.581 100.35 206.446 C 95.69 209.256 91.216 212.977 89.237 218.15 C 87.259 223.325 87.264 233.383 92.024 236" id="Fill-141" fill="#241352" style=""/>
        <path d="M 127.521 279.225 C 121.328 276.869 168.959 293.802 168.959 293.802 L 164.11 325 L 145.993 319.309 L 127.521 279.225 Z" id="Fill-143" style="fill: rgb(47, 147, 186);"/>
        <path d="M 158.562 376.631 C 158.562 376.631 178.694 370.352 178.002 372.417 C 177.31 374.483 173.883 374.559 170.459 377.892 C 170.459 377.892 192.96 378.134 191.877 379.978 C 190.794 381.821 176.148 382.284 176.058 382.599 C 175.972 382.915 192.079 383.306 191.717 385.011 C 191.352 386.715 176.383 386.301 176.383 386.301 C 176.383 386.301 190.256 387.767 189.973 389.607 C 189.688 391.447 176.896 390.122 176.896 390.122 C 176.896 390.122 187.603 391.339 187.323 393.001 C 187.151 394.019 155.973 394.248 155.908 394.994 C 155.873 395.386 158.562 376.631 158.562 376.631" id="Fill-145" fill="#FFAFA7" style=""/>
        <path d="M 189.197 279 C 189.197 279 177.068 261.912 179.232 261.919 C 181.396 261.927 182.523 265.144 186.724 267.349 C 186.724 267.349 180.029 245.975 182.102 246.424 C 184.18 246.872 189.126 260.589 189.45 260.577 C 189.773 260.559 185.184 245.193 186.908 245.002 C 188.63 244.814 192.845 259.11 192.845 259.11 C 192.845 259.11 189.96 245.52 191.784 245.215 C 193.611 244.91 196.295 257.431 196.295 257.431 C 196.295 257.431 194.149 246.916 195.809 246.659 C 196.819 246.505 205.969 272.585 205.969 272.585 C 205.728 272.585 189.197 279 189.197 279" id="Fill-147" fill="#FFAFA7" style=""/>
        <path d="M 78.348 325 C 78.477 324.987 78.918 325.721 78.941 327.179 C 78.936 327.886 78.627 328.911 77.661 329.553 C 77.2 329.872 76.513 330.101 75.803 329.955 C 75.1 329.819 74.569 329.374 74.186 328.984 C 73.416 328.145 72.911 327.649 72.119 327.562 C 71.363 327.45 70.679 327.687 70.24 328.06 C 69.318 328.846 69.346 329.752 69.159 329.74 C 69.034 329.814 68.557 328.772 69.594 327.497 C 70.102 326.888 71.119 326.392 72.252 326.495 C 72.812 326.537 73.409 326.725 73.913 327.083 C 74.405 327.43 74.755 327.848 75.101 328.192 C 76.341 329.772 77.971 328.228 78.06 327.094 C 78.258 325.893 78.144 325.014 78.348 325" id="Fill-149" style="fill: rgb(47, 147, 186);"/>
        <path d="M 88.956 316.114 C 88.878 316.012 89.313 315.257 90.617 314.451 C 91.257 314.073 92.341 313.777 93.41 314.226 C 93.935 314.432 94.492 314.877 94.725 315.54 C 94.961 316.193 94.831 316.871 94.677 317.395 C 94.313 318.481 94.124 319.164 94.449 319.866 C 94.735 320.549 95.301 320.987 95.864 321.147 C 97.039 321.48 97.842 320.971 97.93 321.13 C 98.06 321.193 97.362 322.147 95.683 321.98 C 94.875 321.892 93.905 321.32 93.419 320.331 C 93.174 319.845 93.038 319.252 93.102 318.648 C 93.163 318.052 93.359 317.538 93.492 317.068 C 94.282 315.197 92.06 314.683 90.988 315.222 C 89.808 315.706 89.071 316.276 88.956 316.114" id="Fill-151" fill="#FCF2FC" style=""/>
        <path d="M 88.967 293.115 C 88.889 293.013 89.324 292.258 90.626 291.452 C 91.266 291.074 92.35 290.776 93.422 291.227 C 93.946 291.433 94.504 291.876 94.734 292.54 C 94.973 293.193 94.843 293.872 94.688 294.395 C 94.325 295.481 94.132 296.165 94.461 296.864 C 94.746 297.549 95.31 297.985 95.872 298.147 C 97.05 298.48 97.853 297.971 97.94 298.131 C 98.07 298.193 97.374 299.147 95.692 298.98 C 94.885 298.89 93.916 298.318 93.431 297.332 C 93.185 296.845 93.048 296.253 93.111 295.646 C 93.172 295.053 93.37 294.539 93.504 294.069 C 94.292 292.198 92.071 291.684 90.998 292.223 C 89.817 292.707 89.083 293.277 88.967 293.115" id="Fill-153" fill="#FCF2FC" style=""/>
        <path d="M 110.449 322.988 C 110.35 323.072 109.526 322.722 108.574 321.551 C 108.126 320.973 107.72 319.966 108.09 318.908 C 108.259 318.393 108.67 317.825 109.339 317.547 C 109.998 317.265 110.713 317.33 111.27 317.434 C 112.432 317.685 113.16 317.809 113.858 317.439 C 114.545 317.109 114.946 316.534 115.065 315.983 C 115.31 314.834 114.705 314.114 114.865 314.017 C 114.921 313.889 115.974 314.471 115.946 316.082 C 115.927 316.859 115.419 317.831 114.435 318.38 C 113.952 318.655 113.35 318.836 112.713 318.827 C 112.089 318.818 111.538 318.675 111.038 318.59 C 109.021 317.996 108.686 320.156 109.341 321.131 C 109.949 322.212 110.606 322.864 110.449 322.988" id="Fill-155" fill="#FCF2FC" style=""/>
        <path d="M 125.925 346.957 C 125.997 347.073 125.485 347.859 124.062 348.63 C 123.362 348.991 122.207 349.228 121.124 348.658 C 120.593 348.388 120.047 347.867 119.854 347.126 C 119.659 346.397 119.85 345.674 120.052 345.119 C 120.516 343.964 120.768 343.238 120.485 342.454 C 120.237 341.688 119.683 341.171 119.107 340.952 C 117.906 340.496 117.027 340.987 116.948 340.808 C 116.817 340.728 117.619 339.747 119.363 340.062 C 120.199 340.221 121.165 340.917 121.595 342.028 C 121.813 342.575 121.911 343.228 121.797 343.881 C 121.686 344.522 121.437 345.066 121.262 345.563 C 120.289 347.534 122.572 348.267 123.734 347.766 C 125.003 347.332 125.816 346.773 125.925 346.957" id="Fill-157" fill="#FCF2FC" style=""/>
        <path d="M 145.944 308.957 C 146.018 309.073 145.503 309.859 144.081 310.63 C 143.381 310.991 142.226 311.228 141.143 310.658 C 140.611 310.388 140.065 309.867 139.873 309.126 C 139.677 308.4 139.869 307.674 140.072 307.119 C 140.534 305.964 140.787 305.238 140.503 304.454 C 140.257 303.688 139.703 303.171 139.126 302.952 C 137.925 302.496 137.047 302.99 136.967 302.808 C 136.836 302.728 137.641 301.747 139.381 302.062 C 140.217 302.221 141.184 302.917 141.613 304.028 C 141.831 304.575 141.93 305.228 141.815 305.881 C 141.704 306.522 141.456 307.066 141.281 307.563 C 140.308 309.534 142.59 310.267 143.752 309.766 C 145.021 309.332 145.835 308.773 145.944 308.957" id="Fill-159" fill="#FCF2FC" style=""/>
        <path d="M 157.472 303.023 C 157.56 302.922 158.534 303.133 159.825 304.158 C 160.438 304.669 161.098 305.626 160.924 306.774 C 160.851 307.332 160.527 307.984 159.858 308.387 C 159.202 308.791 158.411 308.85 157.779 308.845 C 156.46 308.793 155.642 308.798 154.962 309.3 C 154.287 309.76 153.974 310.417 153.964 311.001 C 153.949 312.218 154.762 312.847 154.61 312.974 C 154.578 313.117 153.304 312.708 152.982 311.055 C 152.837 310.259 153.178 309.176 154.13 308.444 C 154.596 308.073 155.214 307.782 155.909 307.677 C 156.59 307.576 157.221 307.625 157.786 307.625 C 160.107 307.871 160.007 305.605 159.081 304.726 C 158.183 303.729 157.325 303.177 157.472 303.023" id="Fill-161" fill="#FCF2FC" style=""/>
        <path d="M 105.915 366.957 C 105.987 367.073 105.474 367.859 104.052 368.63 C 103.352 368.991 102.197 369.228 101.114 368.658 C 100.582 368.388 100.036 367.864 99.844 367.126 C 99.649 366.397 99.838 365.674 100.04 365.119 C 100.506 363.965 100.759 363.239 100.472 362.455 C 100.228 361.688 99.674 361.171 99.098 360.952 C 97.893 360.496 97.015 360.987 96.939 360.808 C 96.808 360.725 97.61 359.747 99.351 360.062 C 100.188 360.219 101.155 360.917 101.584 362.029 C 101.802 362.576 101.899 363.228 101.787 363.881 C 101.675 364.522 101.428 365.066 101.252 365.563 C 100.279 367.534 102.561 368.267 103.722 367.766 C 104.993 367.332 105.807 366.773 105.915 366.957" id="Fill-163" fill="#FCF2FC" style=""/>
        <path d="M 133.927 328.992 C 133.823 329.067 133.091 328.6 132.338 327.248 C 131.985 326.584 131.727 325.47 132.2 324.394 C 132.422 323.867 132.874 323.314 133.537 323.097 C 134.188 322.878 134.852 323.032 135.362 323.206 C 136.422 323.612 137.088 323.826 137.789 323.518 C 138.472 323.247 138.92 322.686 139.096 322.12 C 139.462 320.929 138.98 320.097 139.143 320.015 C 139.211 319.883 140.129 320.621 139.911 322.327 C 139.799 323.148 139.207 324.118 138.218 324.58 C 137.732 324.815 137.145 324.936 136.547 324.849 C 135.965 324.77 135.463 324.551 135.006 324.401 C 133.184 323.535 132.61 325.785 133.11 326.894 C 133.55 328.112 134.089 328.877 133.927 328.992" id="Fill-165" fill="#FCF2FC" style=""/>
        <path d="M 139.915 348.992 C 139.814 349.067 139.079 348.6 138.327 347.248 C 137.975 346.584 137.716 345.47 138.192 344.394 C 138.411 343.867 138.865 343.314 139.527 343.1 C 140.178 342.878 140.84 343.032 141.351 343.208 C 142.411 343.612 143.079 343.829 143.778 343.518 C 144.461 343.247 144.908 342.688 145.085 342.12 C 145.45 340.929 144.972 340.097 145.131 340.015 C 145.2 339.883 146.118 340.621 145.902 342.327 C 145.789 343.148 145.196 344.118 144.206 344.58 C 143.722 344.815 143.133 344.936 142.535 344.851 C 141.953 344.77 141.454 344.551 140.995 344.401 C 139.173 343.535 138.599 345.785 139.098 346.894 C 139.539 348.112 140.079 348.879 139.915 348.992" id="Fill-167" fill="#FCF2FC" style=""/>
        <path d="M 100.147 341.999 C 100.022 341.982 99.775 341.09 100.083 339.504 C 100.247 338.739 100.771 337.698 101.819 337.221 C 102.324 336.977 103.018 336.885 103.652 337.206 C 104.282 337.514 104.677 338.118 104.949 338.625 C 105.481 339.708 105.84 340.362 106.562 340.637 C 107.249 340.928 107.941 340.826 108.44 340.521 C 109.48 339.88 109.658 338.893 109.833 338.945 C 109.967 338.896 110.177 340.133 108.916 341.281 C 108.303 341.825 107.237 342.131 106.199 341.763 C 105.683 341.589 105.166 341.249 104.774 340.749 C 104.392 340.26 104.157 339.728 103.91 339.276 C 103.106 337.285 101.23 338.583 100.888 339.795 C 100.433 341.05 100.34 342.034 100.147 341.999" id="Fill-169" fill="#FCF2FC" style=""/>
        <path d="M 136.135 365.999 C 136.011 365.982 135.762 365.09 136.073 363.504 C 136.236 362.739 136.761 361.698 137.808 361.221 C 138.313 360.977 139.008 360.885 139.642 361.206 C 140.272 361.514 140.665 362.118 140.938 362.625 C 141.47 363.708 141.829 364.362 142.551 364.637 C 143.239 364.928 143.931 364.826 144.429 364.521 C 145.47 363.88 145.648 362.893 145.821 362.945 C 145.955 362.896 146.166 364.133 144.904 365.281 C 144.295 365.825 143.224 366.133 142.189 365.763 C 141.672 365.589 141.156 365.249 140.764 364.749 C 140.381 364.262 140.146 363.728 139.9 363.276 C 139.095 361.283 137.219 362.583 136.878 363.795 C 136.422 365.05 136.329 366.034 136.135 365.999" id="Fill-171" fill="#FCF2FC" style=""/>
        <path d="M 134.173 291.999 C 134.048 291.984 133.799 291.089 134.109 289.503 C 134.271 288.738 134.798 287.696 135.845 287.219 C 136.35 286.978 137.044 286.886 137.679 287.204 C 138.309 287.512 138.703 288.116 138.974 288.626 C 139.507 289.71 139.866 290.364 140.588 290.637 C 141.275 290.93 141.967 290.828 142.466 290.523 C 143.507 289.881 143.685 288.892 143.858 288.944 C 143.992 288.894 144.204 290.135 142.941 291.281 C 142.332 291.828 141.262 292.133 140.226 291.763 C 139.709 291.589 139.192 291.251 138.8 290.749 C 138.417 290.262 138.183 289.727 137.936 289.277 C 137.132 287.284 135.256 288.584 134.914 289.797 C 134.459 291.052 134.367 292.034 134.173 291.999" id="Fill-173" fill="#FCF2FC" style=""/>
        <path d="M 121.678 375.964 C 121.607 376.073 120.662 375.973 119.307 375.117 C 118.66 374.69 117.908 373.834 117.919 372.707 C 117.912 372.158 118.128 371.492 118.702 371.03 C 119.266 370.571 120.005 370.427 120.599 370.365 C 121.848 370.276 122.618 370.184 123.19 369.626 C 123.764 369.107 123.97 368.437 123.901 367.874 C 123.75 366.692 122.899 366.173 123.026 366.033 C 123.037 365.893 124.291 366.15 124.819 367.716 C 125.064 368.471 124.887 369.553 124.091 370.367 C 123.7 370.77 123.159 371.12 122.519 371.296 C 121.892 371.465 121.29 371.486 120.762 371.547 C 118.54 371.556 118.942 373.738 119.932 374.489 C 120.912 375.358 121.792 375.799 121.678 375.964" id="Fill-175" fill="#FCF2FC" style=""/>
        <path d="M 79.143 303.005 C 79.259 302.945 80 303.457 80.674 304.809 C 80.986 305.472 81.15 306.552 80.535 307.524 C 80.243 308.002 79.704 308.48 78.973 308.619 C 78.251 308.763 77.554 308.553 77.022 308.338 C 75.924 307.851 75.231 307.583 74.449 307.807 C 73.688 307.997 73.154 308.482 72.908 309.001 C 72.395 310.09 72.828 310.925 72.646 310.989 C 72.562 311.105 71.649 310.316 72.053 308.722 C 72.255 307.958 72.988 307.101 74.096 306.76 C 74.64 306.584 75.282 306.527 75.915 306.666 C 76.531 306.799 77.048 307.055 77.526 307.243 C 79.394 308.237 80.234 306.168 79.809 305.07 C 79.457 303.876 78.956 303.096 79.143 303.005" id="Fill-177" fill="#FCF2FC" style=""/>
        <path d="M 121.146 296.005 C 121.264 295.943 122.002 296.458 122.676 297.809 C 122.988 298.473 123.156 299.552 122.537 300.524 C 122.249 301 121.707 301.48 120.976 301.617 C 120.254 301.764 119.558 301.551 119.026 301.338 C 117.93 300.851 117.236 300.581 116.453 300.805 C 115.692 300.995 115.158 301.482 114.911 302.001 C 114.401 303.09 114.831 303.925 114.651 303.989 C 114.565 304.105 113.652 303.314 114.057 301.722 C 114.259 300.958 114.993 300.101 116.099 299.76 C 116.643 299.582 117.288 299.527 117.919 299.666 C 118.537 299.799 119.05 300.055 119.528 300.243 C 121.399 301.238 122.237 299.168 121.811 298.068 C 121.46 296.874 120.958 296.096 121.146 296.005" id="Fill-179" fill="#FCF2FC" style=""/>
        <path d="M 96.407 338 C 96.314 337.99 96.33 337.105 96.436 335.509 C 96.542 333.916 96.739 331.609 97.01 328.767 C 97.55 323.082 98.402 315.225 99.398 306.58 C 99.628 304.432 99.745 302.343 99.432 300.394 C 99.143 298.442 98.339 296.689 97.171 295.265 C 94.812 292.39 91.464 290.895 88.616 290.254 C 85.731 289.601 83.271 289.633 81.595 289.679 C 79.912 289.734 78.976 289.831 78.96 289.734 C 78.945 289.662 79.853 289.398 81.551 289.188 C 83.245 288.994 85.764 288.815 88.825 289.384 C 91.84 289.947 95.494 291.434 98.142 294.551 C 99.46 296.092 100.4 298.084 100.73 300.205 C 101.086 302.326 100.962 304.519 100.732 306.703 C 99.731 315.377 98.733 323.198 97.951 328.864 C 97.558 331.696 97.218 333.983 96.952 335.562 C 96.689 337.144 96.499 338.01 96.407 338" id="Fill-181" style="fill: rgb(47, 147, 186);"/>
        <path d="M 96.936 337.095 C 96.972 337.433 88.718 338.556 78.502 339.608 C 68.284 340.663 59.971 341.24 59.934 340.905 C 59.899 340.569 68.151 339.444 78.372 338.394 C 88.585 337.34 96.901 336.759 96.936 337.095" id="Fill-183" style="fill: rgb(47, 147, 186);"/>
        <path d="M 187.656 351.083 C 187.976 348.891 187.915 346.805 189.102 344.872 C 191.47 341.021 194.828 341.987 198.078 343.683 C 201.39 345.409 204.507 346.444 208.109 344.831 C 213.736 342.312 216.38 333.539 211.015 329.411 C 209.278 328.074 207.563 330.281 207.797 331.969 C 208.12 334.331 209.251 336.929 207.294 338.957 C 204.68 341.668 201.615 339.392 199.008 338.175 C 196.192 336.86 193.196 336.569 190.288 337.786 C 185.283 339.878 181.65 346.897 185.621 351.638 C 186.182 352.308 187.522 352.006 187.656 351.083" id="Fill-185" fill="#7E2E84" style=""/>
        <path d="M 224.948 270.754 C 220.871 274.573 219.319 280.516 223.204 285.104 C 226.857 289.425 233.937 290.341 238.507 286.896 C 249.543 278.587 238.052 263.252 226.148 266.426 C 223.943 267.013 224.492 270.078 226.67 270.2 C 230.149 270.394 233.875 270.523 236.652 272.905 C 239.638 275.461 239.701 279.787 237.252 282.728 C 230.758 290.518 219.494 279.048 226.314 272.085 C 227.172 271.209 225.848 269.911 224.948 270.754" id="Fill-187" fill="#FF7081" style=""/>
        <path d="M 61.951 263.754 C 57.876 267.573 56.322 273.516 60.207 278.104 C 63.863 282.424 70.94 283.34 75.511 279.898 C 86.547 271.587 75.056 256.25 63.15 259.426 C 60.947 260.014 61.494 263.078 63.672 263.2 C 67.152 263.395 70.878 263.524 73.659 265.905 C 76.642 268.461 76.704 272.789 74.255 275.727 C 67.762 283.517 56.497 272.048 63.316 265.085 C 64.175 264.21 62.851 262.911 61.951 263.754" id="Fill-189" fill="#7CABFF" style=""/>
        <path d="M 6.989 357.038 C 9.574 366.964 12.42 376.773 15.378 386.587 C 16.091 388.947 18.251 389.688 20.22 388.309 C 27.95 382.893 35.681 377.566 43.003 371.567 C 44.413 370.41 44.105 368.085 42.715 367.099 C 34.146 361.026 22.575 352.064 11.7 352 C 8.933 351.985 6.997 356.003 9.801 357.673 C 14.189 360.285 19.448 361.216 24.137 363.23 C 29.546 365.55 34.901 368.276 39.677 371.796 C 39.783 370.166 39.892 368.54 39.998 366.912 C 31.816 372.11 24.11 377.939 16.327 383.75 L 20.921 384.697 C 17.606 375.004 14.204 365.382 10.53 355.832 C 9.753 353.814 6.437 354.921 6.989 357.038" id="Fill-191" fill="#FF7081" style=""/>
        <path d="M 236.897 315.703 C 243.806 316.573 251.089 317.18 258.061 316.952 C 260.622 316.868 260.529 313.663 258.063 313.435 C 251.258 312.798 244.069 312.933 237.248 313.378 C 235.879 313.466 235.333 315.504 236.897 315.703" id="Fill-193" fill="#FBC580" style=""/>
        <path d="M 4.897 315.703 C 11.805 316.573 19.088 317.18 26.061 316.952 C 28.624 316.868 28.528 313.663 26.062 313.435 C 19.257 312.798 12.068 312.933 5.248 313.378 C 3.879 313.466 3.333 315.504 4.897 315.703" id="Fill-195" fill="#FBC580" style=""/>
        <path d="M 50.835 304.401 C 50.72 304.299 50.606 304.199 50.492 304.099 C 48.985 302.768 46.512 302.505 45.044 304.099 C 43.562 305.711 43.615 307.921 45.042 309.535 L 45.346 309.877 C 46.694 311.396 49.474 311.353 50.832 309.877 C 52.183 308.408 52.458 305.834 50.835 304.401" id="Fill-197" fill="#241352" style=""/>
        <path d="M 148.419 338 C 148.161 337.983 147.926 331.983 147.424 324.546 C 146.919 317.097 147.15 310.981 147.468 311 C 147.726 311.015 147.959 317.014 148.464 324.454 C 148.966 331.9 148.737 338.019 148.419 338" id="Fill-199" style="fill: rgb(47, 147, 186);"/>
        <polygon id="Fill-201" fill="#241352" points="188.964 281.118 207.851 276 208.965 279.305 189.913 285" style=""/>
        <path d="M 199.965 280.001 C 199.964 281.106 199.068 282 197.965 282 C 196.861 282 195.964 281.106 195.965 280.001 C 195.965 278.896 196.863 278 197.967 278 C 199.07 278 199.965 278.896 199.965 280.001" id="Fill-203" fill="#E6E2EB" style=""/>
        <path d="M 125.796 229.96 C 125.557 230.104 125.072 229.852 124.6 229.339 C 124.132 228.832 123.93 228.195 124.187 228.04 C 124.423 227.896 124.91 228.148 125.382 228.661 C 125.848 229.168 126.05 229.805 125.796 229.96" id="Fill-205" fill="#241352" style=""/>
        <path d="M 110.795 231.96 C 110.556 232.104 110.071 231.852 109.599 231.339 C 109.131 230.832 108.929 230.195 109.185 230.04 C 109.422 229.896 109.909 230.148 110.379 230.661 C 110.847 231.168 111.049 231.805 110.795 231.96" id="Fill-207" fill="#241352" style=""/>
        <polygon id="Fill-209" points="94.027 154.741 94.009 191.903 69.409 191.903 68.619 206 54.171 191.089 0.01 191.089 4.799 152" style="fill: rgb(47, 147, 186);"/>
        <path d="M 83.821 166.831 C 60.052 166.439 36.127 166.301 12.36 166.713 C 11.908 166.721 11.908 167.279 12.36 167.287 C 36.127 167.699 60.052 167.561 83.821 167.169 C 84.088 167.165 84.088 166.835 83.821 166.831" id="Fill-211" fill="#E6E2EB" style=""/>
        <path d="M 83.818 173.831 C 60.049 173.439 36.124 173.301 12.357 173.713 C 11.905 173.721 11.904 174.279 12.356 174.287 C 36.123 174.699 60.049 174.561 83.818 174.169 C 84.084 174.165 84.084 173.835 83.818 173.831" id="Fill-213" fill="#E6E2EB" style=""/>
        <path d="M 82.817 180.831 C 68.406 180.457 53.761 180.345 39.35 180.713 C 38.903 180.725 38.903 181.275 39.35 181.287 C 53.76 181.657 68.405 181.543 82.817 181.169 C 83.08 181.163 83.08 180.837 82.817 180.831" id="Fill-215" fill="#E6E2EB" style=""/>
      </g>
    </g>
  </g>
</svg>