<svg xmlns="http://www.w3.org/2000/svg" xmlns:xlink="http://www.w3.org/1999/xlink" viewBox="0 0 146.71 266.89"><defs><style>.cls-1,.cls-23{fill:none;}.cls-2{fill:#e0f0ff;}.cls-3{fill:#a2e3f9;}.cls-4{fill:#9adcff;}.cls-5{fill:#359cc9;}.cls-6{fill:#eda640;}.cls-7{fill:#2f93ba;}.cls-8{fill:#3f241d;}.cls-9{fill:#f4b253;}.cls-10{fill:#364868;}.cls-11{fill:#db806b;}.cls-12{fill:#db856e;}.cls-13{fill:#b7604f;}.cls-14{fill:#fff;}.cls-15{fill:#39abe1;}.cls-16{fill:#fdc25c;}.cls-17{fill:#cc5c46;}.cls-18{fill:#2da1c1;}.cls-19{fill:#b8e9ff;}.cls-20{fill:#3fb0d8;}.cls-21{clip-path:url(#clip-path);}.cls-22{fill:#097896;}.cls-23{stroke:#fff;stroke-linecap:round;stroke-miterlimit:10;}</style><clipPath id="clip-path" transform="translate(-287.9 -96.05)"><rect class="cls-1" x="387.88" y="136.33" width="25.23" height="16.46"/></clipPath></defs><g id="OBJECT"><ellipse class="cls-2" cx="56.59" cy="259.69" rx="42.55" ry="7.2"/><path class="cls-2" d="M413.42,244.92a69,69,0,1,0-86.72,22.35,56.12,56.12,0,1,0,86.72-22.35Z" transform="translate(-287.9 -96.05)"/><rect class="cls-3" x="51.5" y="178.2" width="3.01" height="78.68"/><rect class="cls-3" x="45.58" y="166.84" width="52.95" height="13.64" rx="4.95"/><path class="cls-4" d="M400.44,231.28c-3,0-6-.23-6-.71l-1.91-13.91c0-2.62,15.78-2.62,15.78,0l-1.91,13.91c0,.48-3,.71-6,.71" transform="translate(-287.9 -96.05)"/><path class="cls-5" d="M407.75,216.66c0,.75-3.3,1.36-7.36,1.36s-7.35-.61-7.35-1.36,3.29-1.37,7.35-1.37S407.75,215.9,407.75,216.66Z" transform="translate(-287.9 -96.05)"/><path class="cls-5" d="M400.39,216.1s.05-10.08-4.48-12.38c-3-1.53-5.78,1.15-9.47-.92,0,0,4.76-4.69,9.91.46s4.56,12.84,4.56,12.84Z" transform="translate(-287.9 -96.05)"/><path class="cls-5" d="M401.43,216.13s.44-10.07,5.08-12.15c3.08-1.38,5.72,1.43,9.5-.46,0,0-4.52-4.92-9.91,0s-5.19,12.61-5.19,12.61Z" transform="translate(-287.9 -96.05)"/><path class="cls-5" d="M400.5,217s-3.73-9.37-.35-13.17c2.25-2.52,5.8-1,8.48-4.31,0,0-6.14-2.63-9.06,4s.44,13.63.44,13.63Z" transform="translate(-287.9 -96.05)"/><path class="cls-6" d="M370,216.72l5.2,10.54s3.58-11.29,1.48-15.87a26,26,0,0,0-4.42-6.94Z" transform="translate(-287.9 -96.05)"/><path class="cls-7" d="M345.06,236.88l-5.7,5.13s-5.87,6.12-5.87,12.73,25.92-2.32,25.92-2.32L361.92,242Z" transform="translate(-287.9 -96.05)"/><path class="cls-8" d="M370.87,159.86s-6.17-4.87-15.54-1.23S345,172.42,345.8,178.25s-5.46,9.87-5.46,9.87-4.3-6-10.08-.22-5.78,14.53,7.77,18.66,36.25-5.28,36.25-5.28,5.83-7.41-1.65-11.48C372.63,189.8,383.86,164.89,370.87,159.86Z" transform="translate(-287.9 -96.05)"/><path class="cls-9" d="M364.4,189l-15.54-.74a7.4,7.4,0,0,0-6.72,3.62c-3.16,5.34-4.82,18.75-1.88,23.25,4.22,6.45-.9,26.89-.9,26.89H370s3.9-32.81,1.5-46.83A7.5,7.5,0,0,0,364.4,189Z" transform="translate(-287.9 -96.05)"/><path class="cls-6" d="M351.87,235.23s5.92,3.14,10.55,1.65c0,0,.67,2.17-1.74,5.13H370s2.74-23,2.21-38.74l-2.64-2.09S361.32,231.76,351.87,235.23Z" transform="translate(-287.9 -96.05)"/><path class="cls-10" d="M352.28,335.74a21.85,21.85,0,0,1,.44,16.85c-3.57,9.18-9.88-3-6.54-16.18Z" transform="translate(-287.9 -96.05)"/><path class="cls-11" d="M352.72,320.62l-.48,16.63s2.23,8.13-3,9.62-2.87-9.62-2.87-9.62l-3.82-15.18Z" transform="translate(-287.9 -96.05)"/><path class="cls-7" d="M357.62,271.35s-17.71-10.33-21.41,2.56,7.2,54.68,7.2,54.68l10.81-1.28S363.12,276.85,357.62,271.35Z" transform="translate(-287.9 -96.05)"/><path class="cls-12" d="M362.42,181.43l-1.08,8,.37.34a2.57,2.57,0,0,1,.18,3.55l-1.78,2a2.74,2.74,0,0,1-3.73.38l-3.93-3a2.88,2.88,0,0,1-.08-4.5l.29-.24,3.83-13.48Z" transform="translate(-287.9 -96.05)"/><path class="cls-13" d="M354.76,180.59l1.73-6.07,5.93,6.91-.89,6.61C357.76,187.37,355.77,183.6,354.76,180.59Z" transform="translate(-287.9 -96.05)"/><path class="cls-13" d="M356.68,171.84s-.28-2.6-2.16-2-1.48,4.79,1.17,5.32C355.69,175.14,352.08,168.72,356.68,171.84Z" transform="translate(-287.9 -96.05)"/><path class="cls-14" d="M362,187.36" transform="translate(-287.9 -96.05)"/><path class="cls-10" d="M334.59,328.59l.84,3.79a4.45,4.45,0,0,1-1.16,4.08c-4.27,4.35-15.49,15.33-19.13,14.42-4.54-1.14,5-14.63,10.9-19.24Z" transform="translate(-287.9 -96.05)"/><path class="cls-11" d="M323.55,297.41c.14.63,2.49,34.23,2.49,34.23s-9.17,11.43-8,12.17,15.29-13.2,16.57-15.22S339.24,299,339.24,299Z" transform="translate(-287.9 -96.05)"/><path class="cls-15" d="M370,242s5.66,13.72,2.28,22-28.44,7.61-28.44,7.61l-3.72,29.1H322.25s-1.34-31.09,1.81-42.33S358.59,242,358.59,242Z" transform="translate(-287.9 -96.05)"/><path class="cls-12" d="M375.05,192.17l-2-5.27,1-5.62s-1.72-3.51-1.92-3.3a15.2,15.2,0,0,0-.72,2.36s-3.67,5.18-3.67,6.49,1.68,1.93,1.68,1.93l2.71,9.3,4.55-3Z" transform="translate(-287.9 -96.05)"/><path class="cls-16" d="M370,193l5.12-2s15.35,25.57,11.29,34.77c-1.7,3.84-4.06,4.92-6.24,4.87a6.59,6.59,0,0,1-6.19-5.88Z" transform="translate(-287.9 -96.05)"/><path class="cls-13" d="M373.53,180.28c-.53-1-1.29-2.43-1.42-2.3a15.2,15.2,0,0,0-.72,2.36s-3.67,5.18-3.67,6.49a1.62,1.62,0,0,0,.39,1C371.22,186.47,372.8,182.75,373.53,180.28Z" transform="translate(-287.9 -96.05)"/><path class="cls-12" d="M357,170.15s.33-6.94,6.16-8.87,9.53.26,10.27,7.09-2,17.27-6.27,18.81-10.37-7.08-10.79-10.92c0,0-2.66,1.37-4.16-2.57S354.88,166.71,357,170.15Z" transform="translate(-287.9 -96.05)"/><path class="cls-8" d="M362,171.26a21.51,21.51,0,0,1,2.26-.62,3.92,3.92,0,0,1,1,0,11.36,11.36,0,0,1,1.2.18,2,2,0,0,0-1-1,2.48,2.48,0,0,0-1.42-.18,3,3,0,0,0-1.27.56A2.41,2.41,0,0,0,362,171.26Z" transform="translate(-287.9 -96.05)"/><path class="cls-8" d="M369.18,170.67a19.53,19.53,0,0,1,2-.11,3.46,3.46,0,0,1,.89.15,7.45,7.45,0,0,1,1,.38,1.68,1.68,0,0,0-.65-1,2.16,2.16,0,0,0-1.17-.42,2.46,2.46,0,0,0-1.18.25A2,2,0,0,0,369.18,170.67Z" transform="translate(-287.9 -96.05)"/><path class="cls-8" d="M363.41,173.66a.17.17,0,0,1,.23.05.44.44,0,0,0,.44.23c.12-.61.52-1.05.94-1s.72.64.63,1.31-.52,1.14-1,1.08-.63-.51-.63-1.07a.73.73,0,0,1-.69-.38A.16.16,0,0,1,363.41,173.66Z" transform="translate(-287.9 -96.05)"/><path class="cls-8" d="M372.14,174.09a.16.16,0,0,0-.22,0,.41.41,0,0,1-.44.12c0-.58-.27-1.06-.67-1.09s-.78.45-.83,1.07.26,1.15.67,1.18.68-.34.79-.85a.72.72,0,0,0,.71-.21A.15.15,0,0,0,372.14,174.09Z" transform="translate(-287.9 -96.05)"/><path class="cls-8" d="M351.74,175.57s13.15-.19,17.2-10.74c0,0,5.71,4,6.17,8.25,0,0,.42-2.12-.72-6.58s-1.32-5.05-4.42-6.28S347.24,160.34,351.74,175.57Z" transform="translate(-287.9 -96.05)"/><path class="cls-14" d="M364.74,180.34l4.79.29S365.9,184.91,364.74,180.34Z" transform="translate(-287.9 -96.05)"/><polygon class="cls-13" points="81.59 79.46 83.19 81.82 80.93 82.23 82.41 81.46 81.59 79.46"/><path class="cls-17" d="M361.52,176.9c0,.37.64.67,1.43.66s1.41-.31,1.41-.68-.64-.66-1.42-.66S361.52,176.53,361.52,176.9Z" transform="translate(-287.9 -96.05)"/><path class="cls-17" d="M371.06,176.83a.69.69,0,0,0,.71.67.7.7,0,0,0,.71-.68.69.69,0,0,0-.72-.66A.68.68,0,0,0,371.06,176.83Z" transform="translate(-287.9 -96.05)"/><path class="cls-12" d="M352.66,224.82h8c1.66,0,7.05,2,7.05,2s2.94,1.17,2.24,1.86-3.41,0-3.41,0-7.46,1.64-9.63-.54l-5.59.54Z" transform="translate(-287.9 -96.05)"/><path class="cls-16" d="M346.26,188.61s-3.93.69-8.64,8.27S323.3,219.32,322,223.54s-1.58,6,2.51,7.15,28.87,0,28.87,0v-7l-15.23-4.59S357.48,199.82,346.26,188.61Z" transform="translate(-287.9 -96.05)"/><path class="cls-18" d="M355.81,227H339.49a1.11,1.11,0,1,1,0,2.22h16.32a1.11,1.11,0,1,0,0-2.22Z" transform="translate(-287.9 -96.05)"/><rect class="cls-19" x="8.94" y="132.61" width="119.68" height="4.05" rx="1.47"/><rect class="cls-5" x="19.72" y="105.63" width="32.98" height="25.58" rx="1.02"/><rect class="cls-20" x="19.72" y="130.99" width="49.3" height="2.22" rx="0.8"/><path class="cls-4" d="M326,214.18a2.79,2.79,0,1,1-2.79-2.79A2.79,2.79,0,0,1,326,214.18Z" transform="translate(-287.9 -96.05)"/><rect class="cls-3" x="85.75" y="178.2" width="3.01" height="78.68"/><circle class="cls-4" cx="400.5" cy="144.54" r="23.17" transform="translate(-94.24 420.67) rotate(-80.78)"/><circle class="cls-4" cx="64.14" cy="18.56" r="18.56"/><circle class="cls-4" cx="38.69" cy="67.96" r="14.26"/><rect class="cls-5" x="99.98" y="40.28" width="25.23" height="16.46"/><g class="cls-21"><path class="cls-22" d="M400.5,144.85a.3.3,0,0,1-.16,0l-12.61-8.23-2-2,.4-.4,2,2,12.42,8.1,12.36-8.08.5-1.85.54.14-.52,2a.3.3,0,0,1-.12.17l-12.61,8.23A.3.3,0,0,1,400.5,144.85Z" transform="translate(-287.9 -96.05)"/></g><rect class="cls-5" x="54.12" y="10.69" width="21.6" height="15.72" rx="1.8"/><polygon class="cls-5" points="57.24 22.68 54.12 29.29 62.4 25.32 57.24 22.68"/><path class="cls-22" d="M349.76,111.66h-5.88a.54.54,0,0,1-.54-.54h0a.55.55,0,0,1,.54-.54h5.88a.54.54,0,0,1,.54.54h0A.54.54,0,0,1,349.76,111.66Z" transform="translate(-287.9 -96.05)"/><path class="cls-22" d="M356.6,113.94H343.88a.54.54,0,0,1-.54-.54h0a.55.55,0,0,1,.54-.54H356.6a.54.54,0,0,1,.54.54h0A.54.54,0,0,1,356.6,113.94Z" transform="translate(-287.9 -96.05)"/><path class="cls-22" d="M356.6,116.28H343.88a.54.54,0,0,1-.54-.54h0a.55.55,0,0,1,.54-.54H356.6a.54.54,0,0,1,.54.54h0A.54.54,0,0,1,356.6,116.28Z" transform="translate(-287.9 -96.05)"/><path class="cls-22" d="M356.6,118.62H343.88a.54.54,0,0,1-.54-.54h0a.55.55,0,0,1,.54-.54H356.6a.54.54,0,0,1,.54.54h0A.54.54,0,0,1,356.6,118.62Z" transform="translate(-287.9 -96.05)"/><circle class="cls-14" cx="33.35" cy="68.16" r="1.65"/><path class="cls-23" d="M321.26,159.27c5.48,0,5.48,9.87,0,9.87" transform="translate(-287.9 -96.05)"/><path class="cls-23" d="M325.37,157c5.48,0,5.48,14.16,0,14.16" transform="translate(-287.9 -96.05)"/><path class="cls-23" d="M329.48,155c5.48,0,5.48,18.12,0,18.12" transform="translate(-287.9 -96.05)"/></g></svg>